<mxfile host="app.diagrams.net" modified="2021-04-30T08:21:20.940Z" agent="5.0 (Windows NT 10.0; Win64; x64) AppleWebKit/537.36 (KHTML, like Gecko) Chrome/90.0.4430.93 Safari/537.36" etag="HXBNFD3u9bM-j844U1g8" version="14.6.9" type="github">
  <diagram name="Page-1" id="8ce9d11a-91a2-4d17-14d8-a56ed91bf033">
    <mxGraphModel dx="1221" dy="645" grid="1" gridSize="10" guides="1" tooltips="1" connect="1" arrows="1" fold="1" page="1" pageScale="1" pageWidth="1100" pageHeight="850" background="#ffffff" math="0" shadow="0">
      <root>
        <mxCell id="0" />
        <mxCell id="1" parent="0" />
        <mxCell id="sjyRoW3ZskKWko0Uvv0J-6" value="" style="edgeStyle=orthogonalEdgeStyle;rounded=0;orthogonalLoop=1;jettySize=auto;html=1;" edge="1" parent="1" source="sjyRoW3ZskKWko0Uvv0J-1" target="sjyRoW3ZskKWko0Uvv0J-5">
          <mxGeometry relative="1" as="geometry" />
        </mxCell>
        <mxCell id="sjyRoW3ZskKWko0Uvv0J-8" value="" style="edgeStyle=orthogonalEdgeStyle;rounded=0;orthogonalLoop=1;jettySize=auto;html=1;" edge="1" parent="1" source="sjyRoW3ZskKWko0Uvv0J-1" target="sjyRoW3ZskKWko0Uvv0J-7">
          <mxGeometry relative="1" as="geometry" />
        </mxCell>
        <mxCell id="sjyRoW3ZskKWko0Uvv0J-1" value="上传历史数据页" style="rounded=1;whiteSpace=wrap;html=1;" vertex="1" parent="1">
          <mxGeometry x="220" y="200" width="120" height="60" as="geometry" />
        </mxCell>
        <mxCell id="sjyRoW3ZskKWko0Uvv0J-5" value="上传历史数据" style="rounded=1;whiteSpace=wrap;html=1;" vertex="1" parent="1">
          <mxGeometry x="220" y="340" width="120" height="60" as="geometry" />
        </mxCell>
        <mxCell id="sjyRoW3ZskKWko0Uvv0J-60" value="" style="edgeStyle=orthogonalEdgeStyle;rounded=0;orthogonalLoop=1;jettySize=auto;html=1;fontSize=10;" edge="1" parent="1" source="sjyRoW3ZskKWko0Uvv0J-7" target="sjyRoW3ZskKWko0Uvv0J-59">
          <mxGeometry relative="1" as="geometry" />
        </mxCell>
        <mxCell id="sjyRoW3ZskKWko0Uvv0J-7" value="复用历史数据" style="rounded=1;whiteSpace=wrap;html=1;" vertex="1" parent="1">
          <mxGeometry x="420" y="200" width="120" height="60" as="geometry" />
        </mxCell>
        <mxCell id="sjyRoW3ZskKWko0Uvv0J-9" value="&lt;font style=&quot;font-size: 10px;&quot;&gt;检查文件类型是否为xlsx&lt;/font&gt;" style="rhombus;whiteSpace=wrap;html=1;rounded=1;fontSize=10;" vertex="1" parent="1">
          <mxGeometry x="240.5" y="530" width="80" height="80" as="geometry" />
        </mxCell>
        <mxCell id="sjyRoW3ZskKWko0Uvv0J-11" value="" style="endArrow=classic;html=1;exitX=0.415;exitY=0.993;exitDx=0;exitDy=0;exitPerimeter=0;" edge="1" parent="1">
          <mxGeometry relative="1" as="geometry">
            <mxPoint x="280.70000000000005" y="609.44" as="sourcePoint" />
            <mxPoint x="280.5" y="650" as="targetPoint" />
          </mxGeometry>
        </mxCell>
        <mxCell id="sjyRoW3ZskKWko0Uvv0J-12" value="是" style="edgeLabel;resizable=0;html=1;align=center;verticalAlign=middle;" connectable="0" vertex="1" parent="sjyRoW3ZskKWko0Uvv0J-11">
          <mxGeometry relative="1" as="geometry">
            <mxPoint x="11" as="offset" />
          </mxGeometry>
        </mxCell>
        <mxCell id="sjyRoW3ZskKWko0Uvv0J-13" value="" style="endArrow=classic;html=1;exitX=1;exitY=0.5;exitDx=0;exitDy=0;" edge="1" parent="1">
          <mxGeometry relative="1" as="geometry">
            <mxPoint x="317.5" y="570" as="sourcePoint" />
            <mxPoint x="387.5" y="570" as="targetPoint" />
            <Array as="points">
              <mxPoint x="347.5" y="570" />
            </Array>
          </mxGeometry>
        </mxCell>
        <mxCell id="sjyRoW3ZskKWko0Uvv0J-14" value="否" style="edgeLabel;resizable=0;html=1;align=center;verticalAlign=middle;" connectable="0" vertex="1" parent="sjyRoW3ZskKWko0Uvv0J-13">
          <mxGeometry relative="1" as="geometry">
            <mxPoint x="-3" y="-1" as="offset" />
          </mxGeometry>
        </mxCell>
        <mxCell id="sjyRoW3ZskKWko0Uvv0J-15" value="返回402状态码" style="rounded=1;whiteSpace=wrap;html=1;" vertex="1" parent="1">
          <mxGeometry x="387.5" y="550" width="90" height="40" as="geometry" />
        </mxCell>
        <mxCell id="sjyRoW3ZskKWko0Uvv0J-17" value="" style="endArrow=classic;html=1;exitX=0.5;exitY=0;exitDx=0;exitDy=0;entryX=1;entryY=0.5;entryDx=0;entryDy=0;" edge="1" parent="1" source="sjyRoW3ZskKWko0Uvv0J-15" target="sjyRoW3ZskKWko0Uvv0J-5">
          <mxGeometry width="50" height="50" relative="1" as="geometry">
            <mxPoint x="410" y="480" as="sourcePoint" />
            <mxPoint x="420" y="400" as="targetPoint" />
            <Array as="points">
              <mxPoint x="435" y="370" />
            </Array>
          </mxGeometry>
        </mxCell>
        <mxCell id="sjyRoW3ZskKWko0Uvv0J-18" value="生成uid并&lt;br&gt;检查合法性" style="rhombus;whiteSpace=wrap;html=1;" vertex="1" parent="1">
          <mxGeometry x="242.5" y="650" width="80" height="60" as="geometry" />
        </mxCell>
        <mxCell id="sjyRoW3ZskKWko0Uvv0J-22" value="" style="endArrow=classic;html=1;fontSize=10;entryX=0;entryY=0.5;entryDx=0;entryDy=0;" edge="1" parent="1" target="sjyRoW3ZskKWko0Uvv0J-24">
          <mxGeometry relative="1" as="geometry">
            <mxPoint x="322.5" y="680" as="sourcePoint" />
            <mxPoint x="442.5" y="680" as="targetPoint" />
          </mxGeometry>
        </mxCell>
        <mxCell id="sjyRoW3ZskKWko0Uvv0J-23" value="文件内容不完整" style="edgeLabel;resizable=0;html=1;align=center;verticalAlign=middle;" connectable="0" vertex="1" parent="sjyRoW3ZskKWko0Uvv0J-22">
          <mxGeometry relative="1" as="geometry">
            <mxPoint x="10" as="offset" />
          </mxGeometry>
        </mxCell>
        <mxCell id="sjyRoW3ZskKWko0Uvv0J-24" value="返回401状态码" style="rounded=1;whiteSpace=wrap;html=1;fontSize=10;" vertex="1" parent="1">
          <mxGeometry x="482.5" y="660" width="90" height="40" as="geometry" />
        </mxCell>
        <mxCell id="sjyRoW3ZskKWko0Uvv0J-25" value="" style="endArrow=classic;html=1;fontSize=10;exitX=1;exitY=0.5;exitDx=0;exitDy=0;entryX=0;entryY=0.5;entryDx=0;entryDy=0;" edge="1" parent="1" source="sjyRoW3ZskKWko0Uvv0J-18" target="sjyRoW3ZskKWko0Uvv0J-27">
          <mxGeometry relative="1" as="geometry">
            <mxPoint x="352.5" y="730" as="sourcePoint" />
            <mxPoint x="452.5" y="730" as="targetPoint" />
            <Array as="points">
              <mxPoint x="322.5" y="730" />
            </Array>
          </mxGeometry>
        </mxCell>
        <mxCell id="sjyRoW3ZskKWko0Uvv0J-26" value="其他错误" style="edgeLabel;resizable=0;html=1;align=center;verticalAlign=middle;" connectable="0" vertex="1" parent="sjyRoW3ZskKWko0Uvv0J-25">
          <mxGeometry relative="1" as="geometry">
            <mxPoint x="30" y="-10" as="offset" />
          </mxGeometry>
        </mxCell>
        <mxCell id="sjyRoW3ZskKWko0Uvv0J-27" value="..." style="rounded=1;whiteSpace=wrap;html=1;fontSize=10;" vertex="1" parent="1">
          <mxGeometry x="492.5" y="710" width="80" height="40" as="geometry" />
        </mxCell>
        <mxCell id="sjyRoW3ZskKWko0Uvv0J-30" value="" style="endArrow=classic;html=1;fontSize=10;exitX=0.5;exitY=1;exitDx=0;exitDy=0;" edge="1" parent="1" source="sjyRoW3ZskKWko0Uvv0J-18">
          <mxGeometry relative="1" as="geometry">
            <mxPoint x="232.5" y="790" as="sourcePoint" />
            <mxPoint x="282.5" y="780" as="targetPoint" />
          </mxGeometry>
        </mxCell>
        <mxCell id="sjyRoW3ZskKWko0Uvv0J-31" value="校验通过" style="edgeLabel;resizable=0;html=1;align=center;verticalAlign=middle;" connectable="0" vertex="1" parent="sjyRoW3ZskKWko0Uvv0J-30">
          <mxGeometry relative="1" as="geometry" />
        </mxCell>
        <mxCell id="sjyRoW3ZskKWko0Uvv0J-34" value="" style="edgeStyle=orthogonalEdgeStyle;rounded=0;orthogonalLoop=1;jettySize=auto;html=1;fontSize=10;" edge="1" parent="1" source="sjyRoW3ZskKWko0Uvv0J-32" target="sjyRoW3ZskKWko0Uvv0J-33">
          <mxGeometry relative="1" as="geometry" />
        </mxCell>
        <mxCell id="sjyRoW3ZskKWko0Uvv0J-32" value="创建本次计算的工作文件夹" style="rounded=1;whiteSpace=wrap;html=1;fontSize=10;" vertex="1" parent="1">
          <mxGeometry x="232.5" y="780" width="100" height="40" as="geometry" />
        </mxCell>
        <mxCell id="sjyRoW3ZskKWko0Uvv0J-49" value="" style="edgeStyle=orthogonalEdgeStyle;rounded=0;orthogonalLoop=1;jettySize=auto;html=1;fontSize=10;" edge="1" parent="1" source="sjyRoW3ZskKWko0Uvv0J-33" target="sjyRoW3ZskKWko0Uvv0J-48">
          <mxGeometry relative="1" as="geometry" />
        </mxCell>
        <mxCell id="sjyRoW3ZskKWko0Uvv0J-33" value="解析xlsx文件并生成CORE.XML" style="rounded=1;whiteSpace=wrap;html=1;fontSize=10;" vertex="1" parent="1">
          <mxGeometry x="225" y="870" width="115" height="40" as="geometry" />
        </mxCell>
        <mxCell id="sjyRoW3ZskKWko0Uvv0J-36" value="" style="edgeStyle=orthogonalEdgeStyle;rounded=0;orthogonalLoop=1;jettySize=auto;html=1;fontSize=10;" edge="1" parent="1" source="sjyRoW3ZskKWko0Uvv0J-35" target="sjyRoW3ZskKWko0Uvv0J-5">
          <mxGeometry relative="1" as="geometry" />
        </mxCell>
        <mxCell id="sjyRoW3ZskKWko0Uvv0J-42" value="" style="edgeStyle=orthogonalEdgeStyle;rounded=0;orthogonalLoop=1;jettySize=auto;html=1;fontSize=10;" edge="1" parent="1" source="sjyRoW3ZskKWko0Uvv0J-35" target="sjyRoW3ZskKWko0Uvv0J-41">
          <mxGeometry relative="1" as="geometry" />
        </mxCell>
        <mxCell id="sjyRoW3ZskKWko0Uvv0J-35" value="判断请求方式是否为POST" style="strokeWidth=2;html=1;shape=mxgraph.flowchart.decision;whiteSpace=wrap;fontSize=10;" vertex="1" parent="1">
          <mxGeometry x="237.5" y="440" width="85" height="60" as="geometry" />
        </mxCell>
        <mxCell id="sjyRoW3ZskKWko0Uvv0J-39" value="" style="endArrow=classic;html=1;fontSize=10;exitX=0.5;exitY=1;exitDx=0;exitDy=0;exitPerimeter=0;entryX=0.5;entryY=0;entryDx=0;entryDy=0;" edge="1" parent="1" source="sjyRoW3ZskKWko0Uvv0J-35" target="sjyRoW3ZskKWko0Uvv0J-9">
          <mxGeometry relative="1" as="geometry">
            <mxPoint x="280" y="520" as="sourcePoint" />
            <mxPoint x="380" y="520" as="targetPoint" />
          </mxGeometry>
        </mxCell>
        <mxCell id="sjyRoW3ZskKWko0Uvv0J-40" value="是" style="edgeLabel;resizable=0;html=1;align=center;verticalAlign=middle;" connectable="0" vertex="1" parent="sjyRoW3ZskKWko0Uvv0J-39">
          <mxGeometry relative="1" as="geometry" />
        </mxCell>
        <mxCell id="sjyRoW3ZskKWko0Uvv0J-41" value="返回状态码501" style="rounded=1;whiteSpace=wrap;html=1;fontSize=10;" vertex="1" parent="1">
          <mxGeometry x="110" y="455" width="70" height="30" as="geometry" />
        </mxCell>
        <mxCell id="sjyRoW3ZskKWko0Uvv0J-43" value="" style="endArrow=classic;html=1;fontSize=10;exitX=0.452;exitY=-0.139;exitDx=0;exitDy=0;exitPerimeter=0;entryX=-0.028;entryY=0.483;entryDx=0;entryDy=0;entryPerimeter=0;" edge="1" parent="1" source="sjyRoW3ZskKWko0Uvv0J-41" target="sjyRoW3ZskKWko0Uvv0J-5">
          <mxGeometry width="50" height="50" relative="1" as="geometry">
            <mxPoint x="130" y="440" as="sourcePoint" />
            <mxPoint x="180" y="390" as="targetPoint" />
            <Array as="points">
              <mxPoint x="142" y="369" />
            </Array>
          </mxGeometry>
        </mxCell>
        <mxCell id="sjyRoW3ZskKWko0Uvv0J-46" value="" style="edgeStyle=orthogonalEdgeStyle;rounded=0;orthogonalLoop=1;jettySize=auto;html=1;fontSize=10;" edge="1" parent="1" source="sjyRoW3ZskKWko0Uvv0J-44" target="sjyRoW3ZskKWko0Uvv0J-45">
          <mxGeometry relative="1" as="geometry" />
        </mxCell>
        <mxCell id="sjyRoW3ZskKWko0Uvv0J-44" value="开始" style="rounded=1;whiteSpace=wrap;html=1;fontSize=10;" vertex="1" parent="1">
          <mxGeometry x="221" width="120" height="60" as="geometry" />
        </mxCell>
        <mxCell id="sjyRoW3ZskKWko0Uvv0J-47" value="" style="edgeStyle=orthogonalEdgeStyle;rounded=0;orthogonalLoop=1;jettySize=auto;html=1;fontSize=10;" edge="1" parent="1" source="sjyRoW3ZskKWko0Uvv0J-45" target="sjyRoW3ZskKWko0Uvv0J-1">
          <mxGeometry relative="1" as="geometry" />
        </mxCell>
        <mxCell id="sjyRoW3ZskKWko0Uvv0J-45" value="欢迎页" style="whiteSpace=wrap;html=1;rounded=1;fontSize=10;" vertex="1" parent="1">
          <mxGeometry x="220.5" y="90" width="120" height="60" as="geometry" />
        </mxCell>
        <mxCell id="sjyRoW3ZskKWko0Uvv0J-52" value="" style="edgeStyle=orthogonalEdgeStyle;rounded=0;orthogonalLoop=1;jettySize=auto;html=1;fontSize=10;" edge="1" parent="1" source="sjyRoW3ZskKWko0Uvv0J-48" target="sjyRoW3ZskKWko0Uvv0J-51">
          <mxGeometry relative="1" as="geometry" />
        </mxCell>
        <mxCell id="sjyRoW3ZskKWko0Uvv0J-48" value="返回状态码200和websocket连接url" style="whiteSpace=wrap;html=1;rounded=1;fontSize=10;" vertex="1" parent="1">
          <mxGeometry x="417.5" y="865" width="112.5" height="50" as="geometry" />
        </mxCell>
        <mxCell id="sjyRoW3ZskKWko0Uvv0J-50" value="&lt;span&gt;创建一个进程调用Bamboo-Core&lt;br&gt;进行计算&lt;/span&gt;" style="rounded=1;whiteSpace=wrap;html=1;fontSize=10;" vertex="1" parent="1">
          <mxGeometry x="720" y="814" width="110" height="50" as="geometry" />
        </mxCell>
        <mxCell id="sjyRoW3ZskKWko0Uvv0J-51" value="建立websocket连接" style="whiteSpace=wrap;html=1;rounded=1;fontSize=10;" vertex="1" parent="1">
          <mxGeometry x="572.5" y="870" width="107.5" height="40" as="geometry" />
        </mxCell>
        <mxCell id="sjyRoW3ZskKWko0Uvv0J-58" value="" style="edgeStyle=orthogonalEdgeStyle;rounded=0;orthogonalLoop=1;jettySize=auto;html=1;fontSize=10;" edge="1" parent="1" source="sjyRoW3ZskKWko0Uvv0J-53" target="sjyRoW3ZskKWko0Uvv0J-57">
          <mxGeometry relative="1" as="geometry" />
        </mxCell>
        <mxCell id="sjyRoW3ZskKWko0Uvv0J-53" value="创建一个进程检测文件实时变化,并通过websocket与浏览器通信" style="rounded=1;whiteSpace=wrap;html=1;fontSize=10;" vertex="1" parent="1">
          <mxGeometry x="720" y="910" width="140" height="59" as="geometry" />
        </mxCell>
        <mxCell id="sjyRoW3ZskKWko0Uvv0J-54" value="" style="strokeWidth=2;html=1;shape=mxgraph.flowchart.annotation_2;align=left;labelPosition=right;pointerEvents=1;fontSize=10;" vertex="1" parent="1">
          <mxGeometry x="680" y="838" width="40" height="100" as="geometry" />
        </mxCell>
        <mxCell id="sjyRoW3ZskKWko0Uvv0J-57" value="计算完成,删除无用文件&lt;br&gt;(仅保留BUCI.DAT),更新&lt;br&gt;info.yaml" style="whiteSpace=wrap;html=1;rounded=1;fontSize=10;" vertex="1" parent="1">
          <mxGeometry x="995" y="910" width="165" height="60" as="geometry" />
        </mxCell>
        <mxCell id="sjyRoW3ZskKWko0Uvv0J-62" value="" style="edgeStyle=orthogonalEdgeStyle;rounded=0;orthogonalLoop=1;jettySize=auto;html=1;fontSize=10;" edge="1" parent="1" source="sjyRoW3ZskKWko0Uvv0J-59" target="sjyRoW3ZskKWko0Uvv0J-61">
          <mxGeometry relative="1" as="geometry" />
        </mxCell>
        <mxCell id="sjyRoW3ZskKWko0Uvv0J-59" value="读取info.yaml,并返回可复用的历史数据信息" style="rounded=1;whiteSpace=wrap;html=1;" vertex="1" parent="1">
          <mxGeometry x="620" y="200" width="130" height="60" as="geometry" />
        </mxCell>
        <mxCell id="sjyRoW3ZskKWko0Uvv0J-64" value="" style="edgeStyle=orthogonalEdgeStyle;rounded=0;orthogonalLoop=1;jettySize=auto;html=1;fontSize=10;" edge="1" parent="1" source="sjyRoW3ZskKWko0Uvv0J-61" target="sjyRoW3ZskKWko0Uvv0J-63">
          <mxGeometry relative="1" as="geometry" />
        </mxCell>
        <mxCell id="sjyRoW3ZskKWko0Uvv0J-61" value="根据要复用的时间点选择对应文件" style="rounded=1;whiteSpace=wrap;html=1;" vertex="1" parent="1">
          <mxGeometry x="835" y="200" width="120" height="60" as="geometry" />
        </mxCell>
        <mxCell id="sjyRoW3ZskKWko0Uvv0J-63" value="生成本次任务的uid,并创建工作文件夹,提取并复制对应的BUCI.DAT" style="rounded=1;whiteSpace=wrap;html=1;" vertex="1" parent="1">
          <mxGeometry x="1035" y="200" width="120" height="60" as="geometry" />
        </mxCell>
        <mxCell id="sjyRoW3ZskKWko0Uvv0J-65" value="" style="strokeWidth=2;html=1;shape=mxgraph.flowchart.annotation_2;align=left;labelPosition=right;pointerEvents=1;fontSize=10;rotation=-180;" vertex="1" parent="1">
          <mxGeometry x="1155" y="220" width="50" height="720" as="geometry" />
        </mxCell>
        <mxCell id="sjyRoW3ZskKWko0Uvv0J-66" value="&lt;font&gt;&lt;font style=&quot;font-size: 16px&quot;&gt;&lt;b&gt;注:&lt;/b&gt;&lt;/font&gt;&lt;br&gt;&lt;span style=&quot;font-size: 14px&quot;&gt;info.xml记录了历史数据的信息,可理解为目录&lt;/span&gt;&lt;br&gt;&lt;b&gt;&lt;font style=&quot;font-size: 16px&quot;&gt;&lt;br&gt;状态码:&lt;/font&gt;&lt;/b&gt;&lt;br&gt;&lt;span style=&quot;font-size: 14px&quot;&gt;401&amp;nbsp; 数据缺失&lt;/span&gt;&lt;br&gt;&lt;span style=&quot;font-size: 14px&quot;&gt;402&amp;nbsp; 文件格式错误&lt;br&gt;&lt;/span&gt;403&amp;nbsp; &amp;nbsp;数据校验失败&lt;br&gt;&lt;span style=&quot;font-size: 14px&quot;&gt;501&amp;nbsp; 请求方式错误&lt;/span&gt;&lt;br&gt;&lt;span style=&quot;font-size: 14px&quot;&gt;200&amp;nbsp; 成功&lt;/span&gt;&lt;/font&gt;" style="shape=callout;whiteSpace=wrap;html=1;perimeter=calloutPerimeter;fontSize=12;position2=0.18;align=left;" vertex="1" parent="1">
          <mxGeometry x="670" y="370" width="280" height="190" as="geometry" />
        </mxCell>
        <mxCell id="sjyRoW3ZskKWko0Uvv0J-69" value="" style="edgeStyle=orthogonalEdgeStyle;rounded=0;orthogonalLoop=1;jettySize=auto;html=1;fontSize=12;" edge="1" parent="1" source="sjyRoW3ZskKWko0Uvv0J-67">
          <mxGeometry relative="1" as="geometry">
            <mxPoint x="1370" y="580" as="targetPoint" />
          </mxGeometry>
        </mxCell>
        <mxCell id="sjyRoW3ZskKWko0Uvv0J-67" value="添加数据页" style="rounded=1;whiteSpace=wrap;html=1;fontSize=12;" vertex="1" parent="1">
          <mxGeometry x="1205" y="550" width="120" height="60" as="geometry" />
        </mxCell>
        <mxCell id="sjyRoW3ZskKWko0Uvv0J-71" value="" style="edgeStyle=orthogonalEdgeStyle;rounded=0;orthogonalLoop=1;jettySize=auto;html=1;fontSize=12;" edge="1" parent="1" source="sjyRoW3ZskKWko0Uvv0J-68" target="sjyRoW3ZskKWko0Uvv0J-70">
          <mxGeometry relative="1" as="geometry" />
        </mxCell>
        <mxCell id="sjyRoW3ZskKWko0Uvv0J-68" value="接收用户数据并进行校验" style="whiteSpace=wrap;html=1;rounded=1;" vertex="1" parent="1">
          <mxGeometry x="1370" y="550" width="85" height="60" as="geometry" />
        </mxCell>
        <mxCell id="sjyRoW3ZskKWko0Uvv0J-78" value="" style="edgeStyle=orthogonalEdgeStyle;rounded=0;orthogonalLoop=1;jettySize=auto;html=1;fontSize=12;" edge="1" parent="1" source="sjyRoW3ZskKWko0Uvv0J-70" target="sjyRoW3ZskKWko0Uvv0J-75">
          <mxGeometry relative="1" as="geometry" />
        </mxCell>
        <mxCell id="sjyRoW3ZskKWko0Uvv0J-70" value="数据是否合法" style="rhombus;whiteSpace=wrap;html=1;rounded=1;" vertex="1" parent="1">
          <mxGeometry x="1490" y="540" width="80" height="80" as="geometry" />
        </mxCell>
        <mxCell id="sjyRoW3ZskKWko0Uvv0J-75" value="返回状态码403" style="rounded=1;whiteSpace=wrap;html=1;fontSize=12;" vertex="1" parent="1">
          <mxGeometry x="1485" y="660" width="90" height="50" as="geometry" />
        </mxCell>
        <mxCell id="sjyRoW3ZskKWko0Uvv0J-79" value="" style="endArrow=classic;html=1;fontSize=12;exitX=0;exitY=0.5;exitDx=0;exitDy=0;entryX=0.5;entryY=1;entryDx=0;entryDy=0;" edge="1" parent="1" source="sjyRoW3ZskKWko0Uvv0J-75" target="sjyRoW3ZskKWko0Uvv0J-67">
          <mxGeometry width="50" height="50" relative="1" as="geometry">
            <mxPoint x="1290" y="700" as="sourcePoint" />
            <mxPoint x="1340" y="650" as="targetPoint" />
            <Array as="points">
              <mxPoint x="1265" y="685" />
            </Array>
          </mxGeometry>
        </mxCell>
        <mxCell id="sjyRoW3ZskKWko0Uvv0J-80" value="否" style="text;html=1;strokeColor=none;fillColor=none;align=center;verticalAlign=middle;whiteSpace=wrap;rounded=0;fontSize=12;" vertex="1" parent="1">
          <mxGeometry x="1521" y="628" width="40" height="20" as="geometry" />
        </mxCell>
        <mxCell id="sjyRoW3ZskKWko0Uvv0J-81" value="" style="endArrow=classic;html=1;fontSize=12;" edge="1" parent="1">
          <mxGeometry relative="1" as="geometry">
            <mxPoint x="1570" y="580" as="sourcePoint" />
            <mxPoint x="1670" y="580" as="targetPoint" />
          </mxGeometry>
        </mxCell>
        <mxCell id="sjyRoW3ZskKWko0Uvv0J-82" value="是" style="edgeLabel;resizable=0;html=1;align=center;verticalAlign=middle;" connectable="0" vertex="1" parent="sjyRoW3ZskKWko0Uvv0J-81">
          <mxGeometry relative="1" as="geometry" />
        </mxCell>
        <mxCell id="sjyRoW3ZskKWko0Uvv0J-92" value="" style="edgeStyle=orthogonalEdgeStyle;rounded=0;orthogonalLoop=1;jettySize=auto;html=1;fontSize=12;" edge="1" parent="1" source="sjyRoW3ZskKWko0Uvv0J-83" target="sjyRoW3ZskKWko0Uvv0J-85">
          <mxGeometry relative="1" as="geometry" />
        </mxCell>
        <mxCell id="sjyRoW3ZskKWko0Uvv0J-83" value="生成CORE.XML" style="rounded=1;whiteSpace=wrap;html=1;fontSize=12;" vertex="1" parent="1">
          <mxGeometry x="1670" y="555" width="90" height="50" as="geometry" />
        </mxCell>
        <mxCell id="sjyRoW3ZskKWko0Uvv0J-99" value="" style="edgeStyle=orthogonalEdgeStyle;rounded=0;orthogonalLoop=1;jettySize=auto;html=1;fontSize=12;" edge="1" parent="1" source="sjyRoW3ZskKWko0Uvv0J-85" target="sjyRoW3ZskKWko0Uvv0J-98">
          <mxGeometry relative="1" as="geometry" />
        </mxCell>
        <mxCell id="sjyRoW3ZskKWko0Uvv0J-85" value="返回状态码200和websocket连接url" style="whiteSpace=wrap;html=1;rounded=1;fontSize=10;" vertex="1" parent="1">
          <mxGeometry x="1790" y="555" width="112.5" height="50" as="geometry" />
        </mxCell>
        <mxCell id="sjyRoW3ZskKWko0Uvv0J-86" value="&lt;span&gt;创建一个进程调用Bamboo-Core&lt;br&gt;进行计算&lt;/span&gt;" style="rounded=1;whiteSpace=wrap;html=1;fontSize=10;" vertex="1" parent="1">
          <mxGeometry x="2257.5" y="505" width="110" height="50" as="geometry" />
        </mxCell>
        <mxCell id="sjyRoW3ZskKWko0Uvv0J-87" value="建立websocket连接" style="whiteSpace=wrap;html=1;rounded=1;fontSize=10;" vertex="1" parent="1">
          <mxGeometry x="2110" y="561" width="107.5" height="40" as="geometry" />
        </mxCell>
        <mxCell id="sjyRoW3ZskKWko0Uvv0J-88" value="" style="edgeStyle=orthogonalEdgeStyle;rounded=0;orthogonalLoop=1;jettySize=auto;html=1;fontSize=10;" edge="1" parent="1" source="sjyRoW3ZskKWko0Uvv0J-89" target="sjyRoW3ZskKWko0Uvv0J-91">
          <mxGeometry relative="1" as="geometry" />
        </mxCell>
        <mxCell id="sjyRoW3ZskKWko0Uvv0J-89" value="创建一个进程检测文件实时变化,并通过websocket与浏览器通信,将集总参数发送至前端" style="rounded=1;whiteSpace=wrap;html=1;fontSize=10;" vertex="1" parent="1">
          <mxGeometry x="2257.5" y="601" width="140" height="59" as="geometry" />
        </mxCell>
        <mxCell id="sjyRoW3ZskKWko0Uvv0J-90" value="" style="strokeWidth=2;html=1;shape=mxgraph.flowchart.annotation_2;align=left;labelPosition=right;pointerEvents=1;fontSize=10;" vertex="1" parent="1">
          <mxGeometry x="2217.5" y="529" width="40" height="100" as="geometry" />
        </mxCell>
        <mxCell id="sjyRoW3ZskKWko0Uvv0J-94" value="" style="edgeStyle=orthogonalEdgeStyle;rounded=0;orthogonalLoop=1;jettySize=auto;html=1;fontSize=12;" edge="1" parent="1" source="sjyRoW3ZskKWko0Uvv0J-91" target="sjyRoW3ZskKWko0Uvv0J-93">
          <mxGeometry relative="1" as="geometry" />
        </mxCell>
        <mxCell id="sjyRoW3ZskKWko0Uvv0J-91" value="计算完成,解析相关DAT文件,生成csv文件" style="whiteSpace=wrap;html=1;rounded=1;fontSize=10;" vertex="1" parent="1">
          <mxGeometry x="2485" y="600" width="165" height="60" as="geometry" />
        </mxCell>
        <mxCell id="sjyRoW3ZskKWko0Uvv0J-102" value="" style="edgeStyle=orthogonalEdgeStyle;rounded=0;orthogonalLoop=1;jettySize=auto;html=1;fontSize=12;" edge="1" parent="1" source="sjyRoW3ZskKWko0Uvv0J-93" target="sjyRoW3ZskKWko0Uvv0J-101">
          <mxGeometry relative="1" as="geometry" />
        </mxCell>
        <mxCell id="sjyRoW3ZskKWko0Uvv0J-93" value="分布参数页" style="whiteSpace=wrap;html=1;rounded=1;fontSize=10;" vertex="1" parent="1">
          <mxGeometry x="2752.5" y="600" width="120" height="60" as="geometry" />
        </mxCell>
        <mxCell id="sjyRoW3ZskKWko0Uvv0J-100" value="" style="edgeStyle=orthogonalEdgeStyle;rounded=0;orthogonalLoop=1;jettySize=auto;html=1;fontSize=12;" edge="1" parent="1" source="sjyRoW3ZskKWko0Uvv0J-98" target="sjyRoW3ZskKWko0Uvv0J-87">
          <mxGeometry relative="1" as="geometry" />
        </mxCell>
        <mxCell id="sjyRoW3ZskKWko0Uvv0J-98" value="集总参数页" style="rounded=1;whiteSpace=wrap;html=1;fontSize=12;" vertex="1" parent="1">
          <mxGeometry x="1950" y="558.5" width="100" height="45" as="geometry" />
        </mxCell>
        <mxCell id="sjyRoW3ZskKWko0Uvv0J-104" value="" style="edgeStyle=orthogonalEdgeStyle;rounded=0;orthogonalLoop=1;jettySize=auto;html=1;fontSize=12;" edge="1" parent="1" source="sjyRoW3ZskKWko0Uvv0J-101" target="sjyRoW3ZskKWko0Uvv0J-103">
          <mxGeometry relative="1" as="geometry" />
        </mxCell>
        <mxCell id="sjyRoW3ZskKWko0Uvv0J-101" value="根据时间点返回对应的数据" style="whiteSpace=wrap;html=1;rounded=1;fontSize=10;" vertex="1" parent="1">
          <mxGeometry x="2952.5" y="600" width="120" height="60" as="geometry" />
        </mxCell>
        <mxCell id="sjyRoW3ZskKWko0Uvv0J-103" value="根据导出选项导出相应的图片(以zip压缩包形式)" style="whiteSpace=wrap;html=1;rounded=1;fontSize=10;" vertex="1" parent="1">
          <mxGeometry x="3152.5" y="600" width="120" height="60" as="geometry" />
        </mxCell>
      </root>
    </mxGraphModel>
  </diagram>
</mxfile>
